<svg width="260" height="188" viewBox="0 0 260 188" fill="none" xmlns="http://www.w3.org/2000/svg">
<g clip-path="url(#clip0_55_16)">
<path d="M259.967 146.248C259.885 144.877 259.64 143.535 259.24 142.231L259.21 139.776V139.529L257.121 137.509C256.873 137.056 256.606 136.599 256.324 136.156C255.745 135.238 255.096 134.298 254.391 133.357L254.121 132.997L252.974 131.704C252.485 131.153 251.951 130.606 251.379 130.081C250.326 129.055 249.113 128.08 247.777 127.185C247.002 126.664 246.175 126.184 245.281 125.734C244.454 125.322 243.586 124.951 242.703 124.633L242.469 124.55C240.763 123.98 238.942 123.598 237.057 123.415L236.742 123.385L236.427 123.373C236.36 123.373 236.293 123.373 236.226 123.373C236.378 123.193 236.534 123.021 236.683 122.837L236.838 122.643L236.983 122.44C237.235 122.092 237.484 121.758 237.714 121.451C238.014 121.05 238.322 120.63 238.641 120.192L238.916 119.809L239.157 119.405C239.216 119.307 239.279 119.206 239.361 119.071C239.531 118.801 239.698 118.524 239.858 118.239L240.058 118.041L240.322 117.512L240.514 117.321L241.241 115.672L242.135 113.87V113.322C242.751 111.34 243.048 109.298 243.018 107.218C242.981 104.594 242.473 102.057 241.509 99.6701C240.533 97.2679 239.123 95.0905 237.306 93.1943C236.304 92.1487 235.199 91.2193 233.997 90.4136C234.142 88.8396 234.019 87.2319 233.626 85.6542L233.574 85.4443L233.515 85.2382C232.502 81.7642 230.236 78.8561 227.123 77.0348C225.48 76.0792 223.674 75.4758 221.823 75.2622C221.426 73.7482 220.803 72.2867 219.957 70.9113C218.002 67.7334 215.083 65.4024 211.563 64.1919C209.86 63.5961 208.109 63.2963 206.358 63.2963C205.965 63.2963 205.572 63.3113 205.182 63.3412C203.253 63.4911 201.391 63.9708 199.633 64.7766C197.689 65.6685 195.964 66.9426 194.51 68.5616C193.119 70.1093 192.051 71.8894 191.331 73.8494L190.671 75.7157C190.437 76.3752 190.211 77.0648 190 77.7768L188.913 80.9435L188.045 80.0891H187.003L186.769 79.9429L186.628 79.8605C185.315 79.0922 183.89 78.4064 182.388 77.8106C181.004 77.2672 179.613 76.81 178.322 76.4727C176.865 76.0792 175.284 75.7981 173.623 75.637C173.211 75.5883 172.821 75.5508 172.428 75.5208C172.128 75.4983 171.816 75.4833 171.49 75.4758C171.011 75.4346 170.54 75.4121 170.084 75.4121H168.622L168.174 75.4683C167.595 75.4796 166.99 75.5246 166.363 75.6033C166.293 75.6107 166.222 75.6182 166.122 75.6257C165.41 75.6745 164.687 75.7794 163.974 75.9293C162.468 76.1916 160.955 76.5664 159.468 77.0498C158.57 77.3384 157.68 77.6756 156.797 78.0467C156.596 77.6344 156.385 77.2109 156.151 76.765L156.014 76.5102C155.68 75.9105 155.302 75.2997 154.879 74.6776C154.449 74.048 153.974 73.4297 153.466 72.8413C152.924 72.1817 152.342 71.5559 151.719 70.9675C151.099 70.3792 150.413 69.8095 149.682 69.2699C147.991 68.0069 146.18 67.0438 144.296 66.403C143.435 66.0845 142.549 65.8221 141.659 65.6235C140.958 65.4661 140.249 65.3312 139.552 65.2263L139.418 65.2075C138.966 65.1438 138.546 65.0951 138.12 65.0576C137.623 65.0164 137.096 64.9939 136.562 64.9939H135.92C135.319 64.9939 134.715 65.0314 134.114 65.1101C132.845 65.2225 131.695 65.4061 130.616 65.6647C129.036 64.6229 127.262 63.8884 125.363 63.4949L125.156 63.4537L124.948 63.4199C124.087 63.2775 123.215 63.2026 122.359 63.2026C121.294 63.2026 120.233 63.315 119.202 63.5324C117.303 63.9371 115.526 64.6829 113.935 65.7472C112.38 66.7852 111.034 68.0969 109.925 69.6559C108.652 71.4397 107.81 73.4559 107.417 75.6445L104.157 92.2424C100.221 89.1844 67.6893 112.052 67.6893 112.052L68.4349 112.888C68.2161 112.839 68.0046 112.779 67.7858 112.738C67.1515 112.603 66.5023 112.494 65.8383 112.423L64.3026 112.254H64.0393C64.0393 112.254 64.0096 112.254 63.9948 112.251L63.583 112.146H62.1512C61.5577 112.112 60.9679 112.089 60.3632 112.067C60.0702 112.059 59.7771 112.056 59.4841 112.056C58.9833 112.056 58.4751 112.067 57.9632 112.093C56.2755 112.112 54.5395 112.266 52.796 112.558L52.5067 112.607L52.2211 112.67C52.1135 112.697 52.0022 112.715 51.8909 112.734C51.4124 112.809 50.9228 112.899 50.422 112.996L50.1846 113.049C49.6208 113.176 49.0421 113.326 48.4412 113.506C47.7253 113.72 47.0131 113.989 46.3157 114.304C45.099 114.776 43.8897 115.38 42.6842 116.114C42.2428 116.38 41.8051 116.673 41.3265 117.018C40.963 117.284 40.5809 117.583 40.184 117.913L39.7983 118.235L39.4459 118.591C39.3828 118.655 39.3123 118.719 39.2678 118.764C38.9414 119.06 38.6335 119.356 38.3405 119.648L38.0252 119.963L37.7358 120.304C37.1275 121.024 36.5599 121.766 36.0443 122.515L35.6103 123.141L35.2691 123.823C35.0799 124.202 34.9056 124.569 34.746 124.91C34.5606 125.311 34.3825 125.727 34.2119 126.15C33.6073 127.537 33.2066 128.961 33.0212 130.4C32.9952 130.55 32.947 130.839 32.947 130.839L32.743 131.873V133.788C32.743 135.336 32.8988 136.808 33.2029 138.169C33.3958 139.079 33.6592 139.96 33.9856 140.781C32.7096 141.695 31.53 142.752 30.458 143.947C28.4623 146.17 27.0082 148.722 26.1328 151.54C25.3464 154.081 25.02 156.689 25.1572 159.309C25.3056 162.104 26.0141 164.81 27.2642 167.351C28.1878 169.228 29.3748 170.952 30.8141 172.496L31.3 173.463L32.7912 174.464L35.0502 176.697H36.0221C36.6824 177.132 37.3093 177.518 37.9213 177.867C38.6038 178.268 39.2938 178.657 40.0023 179.043C40.9259 179.546 41.8978 180.014 42.8956 180.434C43.6486 180.752 44.3979 181.06 45.1398 181.352C45.9448 181.67 46.772 181.978 47.6177 182.278L47.8477 182.356C49.8285 183.005 51.8427 183.484 53.8421 183.788C55.0922 184.046 56.3719 184.204 57.6554 184.26L57.8854 184.271H58.0003C58.464 184.305 58.9351 184.324 59.4025 184.324H62.3033L62.5184 184.271H62.8077L63.2714 184.178C63.5608 184.155 63.8464 184.121 64.1357 184.08L64.8998 184.005C65.5008 183.945 66.1054 183.855 66.7026 183.747C67.5558 183.615 68.4312 183.45 69.3178 183.263C70.3824 183.035 71.4841 182.738 72.5895 182.386L72.8083 182.319L73.0235 182.24C73.3573 182.116 73.6986 181.996 74.0881 181.862C74.6667 181.659 75.2491 181.434 75.8203 181.198C77.1632 180.662 78.506 179.988 79.808 179.193L79.9971 179.077L81.4661 178.095C81.5848 178.017 81.6998 177.923 81.8185 177.84C81.8593 177.867 81.8964 177.897 81.9372 177.927C84.7637 179.845 88.028 181.352 91.6373 182.405C95.1538 183.432 98.9151 183.953 102.825 183.953C104.676 183.953 106.497 183.836 108.274 183.604C109.899 184.893 111.72 185.92 113.697 186.662C115.856 187.475 118.126 187.888 120.445 187.888C120.819 187.888 121.194 187.876 121.565 187.854C124.262 187.704 126.821 187.037 129.177 185.875C131.476 184.74 133.502 183.207 135.201 181.311C135.286 181.217 135.356 181.112 135.438 181.018C136.017 181.442 136.614 181.839 137.237 182.199C139.466 183.484 141.874 184.324 144.404 184.698C145.353 184.837 146.318 184.908 147.275 184.908C148.232 184.908 149.185 184.837 150.131 184.698C152.193 184.425 154.182 183.836 156.04 182.952C158.318 181.865 160.365 180.366 162.123 178.492C162.71 177.867 163.247 177.203 163.745 176.51C164.46 177.256 165.21 177.972 165.989 178.646C167.517 179.965 169.157 181.138 170.87 182.131C172.451 183.049 174.105 183.844 175.793 184.496C177.595 185.231 179.465 185.793 181.364 186.167C183.096 186.508 184.844 186.733 186.561 186.831L186.862 186.85H190.816L191.031 186.797H192.155L192.76 186.595C193.364 186.516 193.969 186.419 194.551 186.317C195.441 186.16 196.343 185.954 197.237 185.699C198.057 185.497 198.873 185.261 199.67 184.994C200.546 184.702 201.428 184.361 202.289 183.986L202.552 183.87L202.808 183.739C202.923 183.683 203.035 183.627 203.183 183.563C203.61 183.372 204.04 183.173 204.47 182.96L204.852 182.768L206.967 181.494L207.022 181.457C207.1 181.528 207.171 181.607 207.248 181.678C209.489 183.765 212.041 185.365 214.827 186.437C217.516 187.472 220.372 188 223.318 188H223.581C226.73 187.966 229.805 187.288 232.721 185.988C235.659 184.676 238.226 182.832 240.359 180.494C242.399 178.253 243.972 175.708 245.04 172.924C246.082 170.199 246.609 167.31 246.609 164.327C247.985 164.004 249.324 163.502 250.615 162.828C252.659 161.756 254.44 160.332 255.905 158.585C257.344 156.869 258.427 154.939 259.121 152.848C259.822 150.734 260.111 148.512 259.974 146.252L259.967 146.248ZM140.26 118.798L140.164 119.112C140.175 119.011 140.193 118.914 140.205 118.813C140.223 118.809 140.242 118.801 140.26 118.798Z" fill="black"/>
<path d="M111.42 120.979C112.009 122.107 112.777 123.081 113.723 123.905C114.669 124.73 115.741 125.345 116.935 125.757C118.13 126.169 119.406 126.323 120.764 126.214C122.084 126.105 123.316 125.757 124.458 125.168C125.601 124.576 126.573 123.816 127.377 122.886C128.182 121.957 128.798 120.881 129.225 119.663C129.655 118.445 129.815 117.175 129.707 115.852L129.21 109.103C129.536 109.14 129.863 109.17 130.189 109.193C131.009 109.264 131.832 109.264 132.652 109.193C133.083 109.193 133.517 109.166 133.965 109.11C134.41 109.058 134.848 108.994 135.278 108.923C135.742 108.852 136.198 108.769 136.644 108.679C137.089 108.589 137.545 108.473 138.009 108.331C138.828 108.08 139.741 107.724 140.739 107.255L141.38 106.933C141.596 106.824 141.811 106.7 142.022 106.558C142.237 106.416 142.452 106.281 142.664 106.157C142.879 106.033 143.076 105.898 143.254 105.752C144.111 105.108 144.841 104.463 145.45 103.819C145.735 103.463 146.021 103.103 146.307 102.743C146.592 102.387 146.841 102.009 147.056 101.615C147.449 100.97 147.824 100.236 148.18 99.4152C148.465 98.6994 148.688 97.9836 148.848 97.2678C149.007 96.5521 149.122 95.855 149.196 95.173C149.267 94.4572 149.311 93.7751 149.33 93.1305C149.348 92.486 149.337 91.8601 149.304 91.253V90.7696L149.252 90.556V90.3424C149.215 90.1625 149.2 90.0126 149.2 89.8852C149.2 89.7577 149.181 89.6078 149.148 89.428C149.077 88.7834 148.97 88.1763 148.825 87.6029C148.755 87.2806 148.692 86.9583 148.64 86.636C148.588 86.3137 148.506 85.9915 148.399 85.6692C148.221 85.0246 148.005 84.38 147.757 83.7354C147.505 83.162 147.186 82.4987 146.793 81.7492C146.614 81.4269 146.407 81.0971 146.177 80.7561C145.943 80.4151 145.687 80.0853 145.401 79.763C145.116 79.407 144.812 79.0735 144.493 78.7699C144.17 78.4664 143.814 78.1703 143.421 77.8855C142.564 77.2409 141.688 76.7762 140.798 76.4914C140.334 76.3115 139.86 76.1691 139.377 76.0604C138.895 75.9517 138.42 75.8618 137.957 75.7906C137.704 75.7569 137.474 75.7269 137.259 75.7082C137.044 75.6894 136.814 75.6819 136.562 75.6819H135.92C135.705 75.6819 135.49 75.7007 135.278 75.7344C134.351 75.8056 133.546 75.933 132.867 76.1091C132.474 76.1803 132.107 76.2703 131.769 76.379C131.428 76.4876 131.083 76.5926 130.727 76.7013L128.798 77.507C128.513 77.6869 128.216 77.8405 127.915 77.9642C127.611 78.0878 127.318 78.2415 127.032 78.4214C127.003 78.4401 126.977 78.4551 126.951 78.4701L126.929 78.1516C126.858 77.151 126.483 76.2553 125.805 75.4646C125.126 74.6776 124.269 74.1754 123.234 73.9618C122.592 73.8531 121.977 73.8643 121.387 73.988C120.797 74.1117 120.263 74.3365 119.781 74.6588C119.298 74.9811 118.879 75.3934 118.523 75.8918C118.167 76.394 117.933 76.9673 117.826 77.6119L110.544 114.66C110.366 115.518 110.314 116.377 110.385 117.239C110.492 118.599 110.841 119.843 111.427 120.971L111.42 120.979ZM127.619 84.2788C127.76 84.2076 127.886 84.1551 127.993 84.1177C128.101 84.0839 128.223 84.0465 128.368 84.009C128.798 83.7954 129.295 83.6342 129.866 83.5256C130.152 83.4544 130.412 83.3831 130.642 83.3119C130.872 83.2407 131.113 83.1695 131.365 83.0983C131.614 83.0271 131.866 82.9822 132.114 82.9634C132.363 82.9447 132.597 82.9185 132.812 82.881C133.06 82.8472 133.301 82.8173 133.535 82.8023C133.769 82.7835 133.991 82.776 134.206 82.776H134.822C135.019 82.776 135.204 82.7948 135.386 82.8285C135.457 82.8622 135.538 82.881 135.627 82.881C135.716 82.881 135.798 82.8997 135.868 82.9334C136.083 83.0046 136.206 83.0421 136.243 83.0421C136.491 83.1508 136.673 83.2745 136.777 83.4169C136.848 83.4881 136.955 83.6155 137.1 83.7916C137.241 84.0052 137.348 84.1851 137.423 84.3275C137.456 84.4362 137.493 84.5524 137.53 84.6761C137.563 84.8035 137.619 84.9534 137.69 85.1333C137.727 85.2757 137.76 85.4293 137.797 85.5905C137.831 85.7516 137.868 85.924 137.905 86.1001C137.942 86.28 137.957 86.4674 137.957 86.6623C137.957 86.8571 137.975 87.067 138.009 87.2806V89.1581C138.009 89.3717 137.99 89.5891 137.957 89.8027C137.957 90.0913 137.938 90.3199 137.905 90.4998V90.8221L137.853 91.1443C137.782 91.5378 137.708 91.9426 137.638 92.3511C137.567 92.7633 137.478 93.1493 137.371 93.5053C137.118 94.2586 136.851 94.8657 136.566 95.3304C136.495 95.4728 136.414 95.5889 136.325 95.6789C136.236 95.7688 136.154 95.8475 136.083 95.9225C135.939 96.1024 135.798 96.2448 135.653 96.3534C135.546 96.4246 135.386 96.4959 135.171 96.5671C135.063 96.6383 134.904 96.6945 134.689 96.7282C134.618 96.7657 134.529 96.7807 134.422 96.7807C134.314 96.7807 134.206 96.7994 134.099 96.8331C133.954 96.8706 133.687 96.8856 133.294 96.8856H132.33C132.151 96.8519 131.973 96.8331 131.795 96.8331C131.617 96.8331 131.421 96.8144 131.206 96.7807C130.812 96.7469 130.412 96.717 130 96.6982C129.588 96.6795 129.169 96.6533 128.743 96.6195C128.576 96.597 128.431 96.582 128.283 96.5671L127.377 84.3388L127.615 84.2713L127.619 84.2788Z" fill="#E52C2C" stroke="white" stroke-width="2" stroke-miterlimit="10"/>
<path d="M148.554 104.04C148.521 104.399 148.491 104.748 148.473 105.085C148.454 105.426 148.447 105.775 148.447 106.131V107.176C148.447 107.517 148.465 107.885 148.499 108.278C148.64 109.672 148.907 111.07 149.304 112.468C149.411 112.828 149.526 113.165 149.652 113.487C149.779 113.81 149.912 114.132 150.053 114.454C150.194 114.814 150.339 115.151 150.483 115.473C150.624 115.796 150.788 116.099 150.966 116.388C151.607 117.643 152.357 118.805 153.214 119.877C154.07 120.949 155.016 121.934 156.051 122.83C157.086 123.726 158.173 124.501 159.319 125.165C160.462 125.828 161.641 126.39 162.854 126.855C164.067 127.357 165.31 127.732 166.575 127.983C167.84 128.234 169.101 128.395 170.351 128.466H172.706L172.922 128.414H173.619C173.727 128.376 173.886 128.361 174.101 128.361C174.71 128.29 175.314 128.2 175.923 128.092C176.531 127.983 177.135 127.84 177.744 127.661C178.352 127.518 178.949 127.346 179.539 127.151C180.129 126.952 180.708 126.727 181.279 126.48C181.565 126.338 181.85 126.203 182.136 126.079C182.421 125.952 182.707 125.82 182.993 125.674L184.599 124.707C186.706 123.347 188.542 121.664 190.115 119.659C190.901 118.584 191.543 117.531 192.044 116.493C192.615 115.417 193.06 114.237 193.383 112.948C193.605 111.883 193.75 110.789 193.832 109.665C193.958 110.298 194.106 110.939 194.295 111.606C194.473 112.108 194.662 112.61 194.859 113.109C195.056 113.611 195.278 114.109 195.527 114.612C196.061 115.65 196.706 116.616 197.456 117.512C198.313 118.479 199.169 119.318 200.026 120.038C200.527 120.394 201.017 120.728 201.499 121.031C201.981 121.335 202.471 121.612 202.972 121.863C203.472 122.148 203.962 122.38 204.444 122.56C204.926 122.74 205.416 122.916 205.917 123.096C206.418 123.238 206.907 123.373 207.389 123.497C207.872 123.621 208.343 123.722 208.81 123.793C209.274 123.864 209.73 123.917 210.175 123.954C210.62 123.988 211.058 124.044 211.488 124.115H212.238V124.168H212.987C213.273 124.168 213.566 124.16 213.87 124.142C214.174 124.123 214.467 124.097 214.753 124.059C215.932 123.95 217.108 123.699 218.288 123.306C218.859 123.126 219.412 122.931 219.946 122.714C220.48 122.5 220.999 122.249 221.5 121.961C222.464 121.425 223.373 120.832 224.23 120.188C224.66 119.899 225.061 119.588 225.436 119.247C225.81 118.906 226.178 118.558 226.534 118.202C226.89 117.879 227.231 117.538 227.55 117.182C227.873 116.826 228.173 116.467 228.463 116.107C228.748 115.713 229.026 115.339 229.294 114.979C229.561 114.623 229.839 114.244 230.124 113.851C230.232 113.671 230.347 113.484 230.473 113.289C230.599 113.09 230.714 112.884 230.822 112.67C230.929 112.528 231.052 112.314 231.196 112.026C231.234 111.955 231.259 111.891 231.278 111.838C231.297 111.786 231.341 111.722 231.412 111.651L231.519 111.437L231.571 111.329V111.22L231.679 111.111C232.213 109.893 232.472 108.642 232.454 107.353C232.435 106.063 232.194 104.849 231.731 103.702C231.267 102.556 230.596 101.529 229.724 100.614C228.848 99.7038 227.802 98.9767 226.589 98.4408C225.339 97.9049 224.082 97.6463 222.813 97.6613C221.545 97.6801 220.332 97.9124 219.171 98.3584C218.009 98.8081 216.975 99.4789 216.066 100.371C215.198 101.225 214.504 102.23 213.977 103.38H214.003L213.948 103.433C213.948 103.504 213.929 103.56 213.896 103.594C213.896 103.736 213.844 103.864 213.736 103.968C213.592 104.328 213.469 104.579 213.362 104.722C213.291 104.902 213.05 105.186 212.638 105.58C212.227 105.973 211.77 106.243 211.273 106.386C210.772 106.528 210.264 106.449 209.749 106.142C209.229 105.839 208.81 105.078 208.491 103.86V102.143L208.543 101.66C208.61 101.225 208.684 100.779 208.751 100.345L221.982 91.8339C222.591 91.4404 223.017 90.9232 223.269 90.2749C223.518 89.6303 223.555 88.952 223.377 88.2362C223.125 87.378 222.617 86.7222 221.852 86.2763C221.085 85.8303 220.272 85.7291 219.415 85.9802L210.565 88.4386L210.743 87.2694L211.01 85.4443L211.225 83.6192C211.295 83.0121 211.377 82.4125 211.466 81.8204C211.555 81.2283 211.633 80.6287 211.707 80.0216C211.885 78.7699 211.644 77.6044 210.984 76.5326C210.324 75.4571 209.37 74.7075 208.12 74.2766C207.404 74.0255 206.699 73.9281 206.006 73.9805C205.308 74.033 204.648 74.2054 204.025 74.4902C203.402 74.7787 202.845 75.1872 202.363 75.7269C201.881 76.2628 201.514 76.8736 201.265 77.5519C201.05 78.1628 200.846 78.7437 200.649 79.2983C200.453 79.8529 200.264 80.4338 200.086 81.0447L199.496 82.7648L198.906 84.4812L198.372 86.2013L197.782 87.9739L197.248 89.694L196.658 91.4104C196.265 92.5572 195.898 93.7189 195.56 94.8994C195.219 96.0799 194.874 97.2454 194.518 98.3884L194.358 98.8193C194.288 98.9992 194.243 99.1416 194.225 99.2503C194.206 99.359 194.18 99.4639 194.143 99.5726C194.073 99.7862 194.028 100.004 194.01 100.217C193.991 100.431 193.947 100.648 193.876 100.862C193.806 101.255 193.75 101.667 193.717 102.098C193.679 102.529 193.628 102.942 193.557 103.335C193.524 103.766 193.494 104.193 193.475 104.624C193.461 104.973 193.457 105.344 193.453 105.715C193.453 105.711 193.453 105.704 193.449 105.696C193.164 104.587 192.556 103.71 191.628 103.065C191.094 102.709 190.523 102.466 189.914 102.342C189.306 102.218 188.709 102.207 188.119 102.316C187.529 102.424 186.977 102.638 186.457 102.96C185.938 103.283 185.5 103.714 185.144 104.25L184.339 105.43C184.269 105.501 184.224 105.565 184.206 105.617C184.187 105.67 184.143 105.734 184.072 105.805C184.002 105.876 183.957 105.932 183.939 105.966C183.92 106.003 183.875 106.056 183.805 106.127C183.735 106.236 183.653 106.341 183.564 106.449C183.475 106.558 183.375 106.663 183.271 106.772C183.093 106.952 182.904 107.12 182.707 107.281C182.51 107.442 182.321 107.615 182.143 107.791C181.965 107.971 181.776 108.113 181.579 108.222C181.383 108.331 181.179 108.454 180.964 108.597C180.533 108.848 180.125 109.046 179.732 109.189C179.305 109.369 178.875 109.511 178.449 109.62C178.018 109.728 177.592 109.818 177.161 109.89C176.267 109.998 175.429 110.032 174.646 109.998C174.431 109.998 174.216 109.991 174.005 109.972C173.79 109.953 173.593 109.927 173.415 109.893L173.255 109.841H172.988L172.936 109.788H172.777C172.669 109.755 172.569 109.725 172.484 109.71C172.395 109.691 172.298 109.665 172.191 109.631C171.905 109.597 171.601 109.507 171.282 109.361L183.972 95.9937C183.972 95.9599 183.979 95.9412 183.998 95.9412C184.016 95.9412 184.024 95.9225 184.024 95.8887C184.057 95.855 184.087 95.8175 184.105 95.7801C184.124 95.7463 184.169 95.6901 184.239 95.6189L184.347 95.5102V95.4578C184.881 94.742 185.103 93.9438 185.018 93.0668C184.929 92.1899 184.528 91.4479 183.812 90.837L183.761 90.7846H183.709V90.7321L183.549 90.6234C183.479 90.5522 183.371 90.481 183.226 90.4098C183.119 90.3386 183.019 90.2562 182.933 90.1662C182.844 90.0763 182.744 89.9976 182.64 89.9226L181.353 89.1169C180.496 88.6147 179.569 88.1688 178.567 87.7753C177.569 87.3818 176.587 87.0595 175.622 86.8084C174.695 86.5573 173.66 86.3774 172.517 86.2725C172.232 86.2388 171.965 86.2088 171.712 86.1901C171.46 86.1713 171.193 86.1638 170.907 86.1638C170.622 86.1301 170.355 86.1114 170.102 86.1114H169.298C169.012 86.1488 168.745 86.1638 168.493 86.1638C168.24 86.1638 167.973 86.1826 167.688 86.2163C167.402 86.2538 167.124 86.28 166.857 86.295C166.59 86.3137 166.311 86.3587 166.026 86.4299C164.92 86.6098 163.811 86.8796 162.706 87.2356C161.597 87.5954 160.51 88.0414 159.438 88.5773C158.403 89.1132 157.383 89.7502 156.385 90.4848C155.384 91.2193 154.438 92.07 153.547 93.0368C152.653 93.97 151.871 95.0231 151.192 96.2035C150.476 97.3503 149.908 98.5832 149.478 99.9099C149.263 100.592 149.078 101.27 148.914 101.949C148.755 102.631 148.636 103.328 148.566 104.043L148.554 104.04ZM165.688 103.234C165.688 103.054 165.707 102.878 165.74 102.698C165.777 102.518 165.829 102.342 165.9 102.162C166.007 101.769 166.159 101.364 166.356 100.952C166.553 100.539 166.812 100.138 167.131 99.745C167.74 98.9205 168.504 98.2047 169.435 97.5976C170.362 96.953 171.453 96.4696 172.703 96.1473C173.204 96.0386 173.701 95.9599 174.201 95.9037C174.702 95.8513 175.199 95.8063 175.7 95.7688L166.489 106.292C166.345 106.15 166.222 105.936 166.115 105.647L165.955 105.325C165.885 105.183 165.848 105.055 165.848 104.95C165.74 104.699 165.688 104.433 165.688 104.145C165.618 103.856 165.618 103.552 165.688 103.23V103.234Z" fill="#E52C2C" stroke="white" stroke-width="2" stroke-miterlimit="10"/>
<path d="M213.885 103.556C213.899 103.519 213.922 103.485 213.937 103.448L213.885 103.556Z" fill="#E52C2C" stroke="white" stroke-width="2" stroke-miterlimit="10"/>
<path d="M213.963 103.395H213.937V103.448C213.937 103.448 213.955 103.414 213.963 103.395Z" fill="#E52C2C" stroke="white" stroke-width="2" stroke-miterlimit="10"/>
<path d="M129.7 167.403C129.592 164.9 129.377 162.355 129.058 159.781C128.88 158.529 128.691 157.255 128.494 155.97C128.297 154.68 128.038 153.376 127.719 152.05C127.433 150.761 127.096 149.453 126.702 148.13C126.309 146.807 125.845 145.48 125.311 144.157C124.777 142.834 124.132 141.493 123.382 140.129C122.989 139.484 122.577 138.832 122.151 138.169C121.721 137.505 121.242 136.872 120.704 136.261C119.669 134.938 118.471 133.758 117.117 132.716C116.401 132.214 115.682 131.742 114.947 131.292C114.216 130.846 113.437 130.46 112.618 130.138C111.798 129.815 110.974 129.557 110.155 129.358C109.335 129.163 108.511 129.01 107.692 128.901C106.015 128.721 104.424 128.721 102.925 128.901C102.176 129.01 101.445 129.133 100.729 129.276C100.013 129.418 99.3195 129.579 98.6406 129.759C97.9618 129.973 97.2941 130.198 96.6339 130.43C95.9736 130.662 95.3393 130.921 94.7346 131.209C93.5921 131.712 92.3977 132.3 91.1476 132.982C90.5393 133.342 89.9866 133.698 89.4895 134.058C89.1668 134.238 88.8812 134.417 88.6327 134.594C88.5622 134.665 88.488 134.717 88.4175 134.755C88.347 134.792 88.2728 134.826 88.2024 134.863L87.9872 135.024L87.8796 135.133L87.8277 135.186H87.7758L87.7238 135.238C86.9041 135.845 86.3588 136.67 86.0917 137.708C85.8246 138.746 85.9396 139.75 86.4404 140.717C86.6889 141.29 87.0376 141.774 87.4827 142.167C87.9279 142.561 88.4212 142.857 88.9554 143.052C89.4895 143.25 90.0534 143.34 90.6432 143.322C91.2329 143.303 91.8116 143.153 92.3829 142.864L92.598 142.756L92.9207 142.647L93.2434 142.486C93.351 142.415 93.4586 142.37 93.5662 142.351C93.6737 142.332 93.7813 142.287 93.8889 142.216C94.3192 142.036 94.7791 141.86 95.2799 141.68C95.7807 141.5 96.2629 141.339 96.7266 141.197C97.1903 141.054 97.6539 140.927 98.1176 140.818C99.0821 140.533 100.009 140.372 100.903 140.335C101.367 140.264 101.812 140.219 102.242 140.2C102.673 140.181 103.081 140.207 103.474 140.279C104.294 140.35 105.028 140.477 105.67 140.653C105.993 140.762 106.286 140.886 106.553 141.028C106.82 141.17 107.08 141.332 107.328 141.512C107.829 141.871 108.255 142.265 108.615 142.692C109.046 143.157 109.402 143.693 109.687 144.303C109.858 144.637 110.017 144.989 110.173 145.36C107.855 144.776 105.414 144.465 102.836 144.465C99.9093 144.465 97.1606 144.839 94.59 145.593C92.0193 146.346 89.7714 147.373 87.8425 148.681C85.9137 149.988 84.3965 151.518 83.2911 153.271C83.0945 153.586 82.9202 153.905 82.757 154.227V153.594C82.7199 153.451 82.705 153.219 82.705 152.897C82.6679 152.683 82.6345 152.458 82.5974 152.226C82.5603 151.993 82.527 151.769 82.4899 151.555C82.4194 151.053 82.3192 150.581 82.1968 150.131C82.0707 149.685 81.9186 149.228 81.7406 148.763C81.5625 148.298 81.3845 147.841 81.2064 147.395C81.0284 146.949 80.8132 146.511 80.5647 146.08C80.0639 145.222 79.5298 144.416 78.9585 143.663C78.6729 143.269 78.3687 142.909 78.0497 142.587C77.727 142.265 77.408 141.961 77.0853 141.673C76.7625 141.388 76.4435 141.111 76.1208 140.841C75.7981 140.571 75.4605 140.312 75.1044 140.061C73.7134 139.132 72.4077 138.379 71.1947 137.805C70.553 137.52 69.9187 137.251 69.2955 136.999C68.6723 136.748 68.0528 136.535 67.4482 136.355C67.1255 136.284 66.8139 136.194 66.5097 136.085C66.2056 135.976 65.9125 135.886 65.6269 135.815C65.4822 135.782 65.3413 135.744 65.1966 135.707C65.0519 135.673 64.911 135.635 64.7663 135.598L63.9094 135.384C63.4087 135.242 62.9005 135.107 62.3849 134.983C61.8655 134.86 61.3574 134.74 60.8603 134.635C60.3595 134.492 59.8773 134.357 59.4136 134.234C58.9499 134.11 58.5048 133.975 58.0745 133.829C57.2881 133.72 56.7874 133.589 56.5759 133.428C56.3645 133.267 56.3422 133.098 56.524 132.918C56.702 132.738 57.0248 132.562 57.4884 132.382C57.9521 132.203 58.4603 132.053 59.013 131.925C59.5657 131.802 60.111 131.693 60.6452 131.603C61.1793 131.513 61.6281 131.487 61.9843 131.521H62.3589C62.4294 131.521 62.4999 131.502 62.574 131.468H63.379C63.8093 131.434 64.2359 131.434 64.6662 131.468C66.4133 131.539 68.1456 131.862 69.8593 132.435C70.2896 132.615 70.7162 132.795 71.1428 132.971C71.5731 133.151 71.9811 133.331 72.3743 133.507C72.7675 133.72 73.1792 133.956 73.6058 134.204C73.6763 134.275 73.7653 134.331 73.8729 134.365C73.9805 134.402 74.0695 134.455 74.14 134.526C74.2105 134.564 74.2995 134.635 74.4071 134.74L74.5146 134.792L74.5666 134.845H74.6185C75.2973 135.452 76.0911 135.74 76.9999 135.703C77.9087 135.669 78.6692 135.291 79.2775 134.575C79.8859 133.893 80.1604 133.098 80.1084 132.184C80.0565 131.273 79.6893 130.512 79.0104 129.902L78.7953 129.688L78.5802 129.527C78.4355 129.384 78.3131 129.276 78.2055 129.205C78.0275 129.025 77.7938 128.83 77.5081 128.612C77.2559 128.433 77.0074 128.245 76.7588 128.05C76.5103 127.852 76.2581 127.664 76.0095 127.488C75.5088 127.132 74.9932 126.799 74.4553 126.495C73.9211 126.192 73.3647 125.895 72.7935 125.611C70.616 124.501 68.242 123.696 65.6714 123.193C65.3487 123.122 65.0297 123.07 64.707 123.032C64.3842 122.999 64.0652 122.961 63.7425 122.924C63.5645 122.924 63.4012 122.916 63.2603 122.897C63.1156 122.879 62.9561 122.871 62.7781 122.871H62.511L62.2958 122.819H61.8655C61.2572 122.785 60.66 122.755 60.0702 122.736C59.4804 122.718 58.8832 122.729 58.2748 122.762C57.0619 122.762 55.8118 122.871 54.5246 123.085C54.2019 123.156 53.8718 123.22 53.5342 123.272C53.1929 123.325 52.848 123.388 52.4919 123.46C52.1691 123.531 51.8316 123.621 51.4755 123.729C51.1194 123.838 50.7596 123.98 50.4035 124.16C49.6876 124.411 48.9234 124.786 48.0999 125.288C47.9219 125.397 47.7327 125.521 47.5361 125.663C47.3395 125.806 47.1355 125.967 46.9203 126.147C46.7423 126.326 46.5531 126.506 46.3565 126.682C46.1599 126.862 45.9707 127.042 45.7927 127.218C45.3995 127.683 45.0434 128.151 44.7207 128.616C44.576 128.905 44.4424 129.178 44.32 129.448C44.1939 129.718 44.0789 129.995 43.9714 130.28C43.6857 130.887 43.5262 131.479 43.4891 132.053C43.452 132.195 43.4261 132.33 43.4075 132.454C43.389 132.581 43.363 132.731 43.3259 132.911V133.769C43.3259 134.556 43.3964 135.253 43.5411 135.864C43.6115 136.224 43.7117 136.554 43.8341 136.857C43.9602 137.161 44.0938 137.457 44.2347 137.741C44.4832 138.315 44.7874 138.836 45.1435 139.3C45.4996 139.874 45.8409 140.286 46.1599 140.537C46.4826 140.931 46.8128 141.264 47.1503 141.53C47.4879 141.8 47.818 142.059 48.1407 142.31C48.4634 142.598 48.775 142.838 49.0792 143.033C49.3834 143.232 49.695 143.419 50.0177 143.595C50.626 143.989 51.2121 144.33 51.7834 144.615C52.3546 144.903 52.9259 145.169 53.4971 145.42C54.6025 145.956 55.6745 146.44 56.7095 146.871C57.2436 147.084 57.7629 147.29 58.2637 147.489C58.7645 147.688 59.2615 147.89 59.7623 148.107L60.137 148.268L60.2965 148.321L60.5116 148.373L61.1533 148.696C61.3685 148.767 61.5725 148.857 61.7691 148.965C61.9657 149.074 62.1697 149.164 62.3849 149.235C62.741 149.415 63.2232 149.737 63.8315 150.202C64.4399 150.667 64.9036 151.188 65.2226 151.761C65.5453 152.334 65.5898 152.889 65.3561 153.425C65.1224 153.961 64.3657 154.373 63.0785 154.662C62.9005 154.662 62.7113 154.654 62.5147 154.635C62.3181 154.617 62.1289 154.609 61.9509 154.609C61.8804 154.609 61.7914 154.602 61.6838 154.583C61.5762 154.564 61.4872 154.557 61.4167 154.557H61.094L60.9345 154.504H60.7193L60.5598 154.452C60.4894 154.452 60.4263 154.444 60.3744 154.426C60.3224 154.407 60.2594 154.399 60.1852 154.399C60.0776 154.366 59.9626 154.328 59.8365 154.291C59.7104 154.257 59.5954 154.219 59.4878 154.182C58.4863 153.86 57.3623 153.305 56.1123 152.518C55.5781 152.233 54.9883 151.821 54.3466 151.285L53.5416 150.641C53.4711 150.569 53.4081 150.517 53.3562 150.479C53.3042 150.446 53.2412 150.389 53.167 150.318C53.0965 150.247 53.0594 150.195 53.0594 150.157C51.9874 149.19 50.793 148.501 49.4724 148.088C48.1519 147.676 46.8202 147.508 45.4811 147.579C44.142 147.65 42.8474 147.991 41.5973 148.598C40.3473 149.209 39.2419 150.048 38.2774 151.124C37.313 152.2 36.6267 153.399 36.215 154.722C35.8069 156.045 35.6363 157.379 35.7068 158.72C35.7773 160.062 36.1185 161.351 36.7232 162.588C37.3315 163.824 38.1698 164.923 39.2419 165.889L39.3494 165.998H39.4014L39.4533 166.107L39.6128 166.215L39.8799 166.429L40.3621 166.751C40.5401 166.86 40.6997 166.965 40.8443 167.074C40.9853 167.182 41.1299 167.287 41.2746 167.396C41.9534 167.861 42.5766 168.254 43.1479 168.576C43.7562 168.932 44.372 169.285 44.9951 169.622C45.6183 169.963 46.2712 170.274 46.95 170.563C47.6288 170.847 48.3077 171.125 48.9865 171.395C49.6653 171.664 50.359 171.923 51.0749 172.174C52.6106 172.676 54.1463 173.032 55.6783 173.25C56.4646 173.429 57.2659 173.534 58.0894 173.572C58.3045 173.572 58.5197 173.579 58.7311 173.598C58.9462 173.617 59.1614 173.624 59.3728 173.624H60.979L61.1941 173.572H61.7283C61.9064 173.534 62.077 173.519 62.2365 173.519C62.396 173.519 62.5666 173.501 62.7447 173.467C63.1008 173.429 63.4569 173.396 63.8167 173.358C64.1728 173.321 64.5289 173.268 64.8887 173.197C65.6009 173.088 66.3354 172.954 67.0847 172.796C67.834 172.635 68.6018 172.429 69.3882 172.178C69.7814 172.035 70.182 171.889 70.5938 171.747C71.0055 171.604 71.4247 171.443 71.8513 171.263C72.6711 170.941 73.4945 170.529 74.3143 170.027C74.7446 169.738 75.1712 169.453 75.6015 169.169C76.0318 168.884 76.4398 168.561 76.833 168.202C77.2633 167.842 77.6639 167.467 78.0386 167.074C78.4132 166.68 78.7953 166.268 79.1885 165.837C79.5446 165.372 79.8673 164.908 80.1529 164.443C80.4386 163.978 80.7242 163.495 81.0098 162.993C81.3214 162.318 81.5774 161.632 81.811 160.939C82.0633 162.172 82.5455 163.349 83.2577 164.469C84.3631 166.208 85.8803 167.726 87.8092 169.034C89.7381 170.341 91.986 171.368 94.5566 172.122C97.1272 172.875 99.8759 173.25 102.803 173.25C105.729 173.25 108.485 172.875 111.075 172.122C111.438 172.017 111.783 171.893 112.135 171.773C112.169 171.844 112.191 171.915 112.228 171.987C112.762 173.077 113.467 174.018 114.343 174.805C115.218 175.592 116.223 176.199 117.369 176.63C118.512 177.061 119.706 177.237 120.956 177.166C122.244 177.095 123.427 176.791 124.517 176.251C125.604 175.715 126.543 175.007 127.329 174.13C128.116 173.253 128.72 172.253 129.151 171.125C129.581 169.997 129.759 168.79 129.685 167.501V167.392L129.7 167.403ZM109.405 155.94C108.656 156.281 107.781 156.55 106.783 156.745C105.781 156.944 104.713 157.041 103.57 157.041C102.428 157.041 101.367 156.944 100.384 156.745C99.4011 156.55 98.5368 156.281 97.7875 155.94C97.0382 155.599 96.4484 155.205 96.0218 154.759C95.5915 154.313 95.3801 153.819 95.3801 153.283C95.3801 152.78 95.5952 152.308 96.0218 151.859C96.4521 151.413 97.0382 151.019 97.7875 150.678C98.5368 150.337 99.4011 150.071 100.384 149.872C101.367 149.674 102.428 149.576 103.57 149.576C104.713 149.576 105.785 149.674 106.783 149.872C107.781 150.071 108.656 150.337 109.405 150.678C110.155 151.019 110.744 151.413 111.171 151.859C111.601 152.304 111.813 152.78 111.813 153.283C111.813 153.819 111.598 154.313 111.171 154.759C110.741 155.209 110.155 155.602 109.405 155.94Z" fill="#E52C2C" stroke="white" stroke-width="2" stroke-miterlimit="10"/>
<path d="M166.968 135.429C166.682 134.41 166.093 133.578 165.202 132.933C164.668 132.54 164.086 132.263 163.463 132.101C162.839 131.94 162.22 131.907 161.615 131.993C161.007 132.083 160.436 132.289 159.902 132.611C159.367 132.933 158.904 133.364 158.511 133.9L147.356 148.868L136.236 133.9C135.627 133.076 134.826 132.506 133.824 132.184C132.823 131.862 131.806 131.88 130.772 132.236C130.13 132.45 129.573 132.783 129.11 133.229C128.646 133.675 128.29 134.178 128.038 134.732C127.789 135.287 127.645 135.879 127.607 136.505C127.574 137.131 127.659 137.768 127.875 138.412L138.317 167.891C138.639 168.715 139.084 169.536 139.656 170.36C140.442 171.436 141.377 172.283 142.467 172.912C143.554 173.538 144.708 173.943 145.921 174.123C146.863 174.261 147.809 174.25 148.751 174.097C149.727 173.965 150.65 173.699 151.518 173.291C152.605 172.774 153.581 172.058 154.438 171.143C155.294 170.229 155.936 169.146 156.366 167.894L166.86 138.416C167.217 137.449 167.254 136.456 166.968 135.437V135.429Z" fill="#E52C2C" stroke="white" stroke-width="2" stroke-miterlimit="10"/>
<path d="M210.635 156.071C210.617 155.749 210.591 155.445 210.554 155.16C210.554 154.947 210.516 154.658 210.446 154.302C210.376 153.946 210.301 153.639 210.231 153.388C209.945 152.278 209.337 151.401 208.41 150.757C207.875 150.401 207.304 150.157 206.696 150.03C206.087 149.906 205.49 149.895 204.9 150.003C204.311 150.112 203.758 150.326 203.239 150.648C202.719 150.97 202.282 151.401 201.925 151.937L201.121 153.118C201.05 153.189 201.006 153.253 200.987 153.305C200.968 153.358 200.924 153.421 200.853 153.492C200.783 153.564 200.738 153.62 200.72 153.654C200.701 153.691 200.657 153.744 200.586 153.815C200.516 153.923 200.434 154.028 200.345 154.137C200.256 154.246 200.156 154.351 200.052 154.459C199.874 154.639 199.685 154.808 199.488 154.969C199.292 155.13 199.103 155.299 198.925 155.479C198.747 155.659 198.557 155.801 198.361 155.91C198.164 156.018 197.96 156.142 197.745 156.284C197.315 156.535 196.907 156.734 196.513 156.877C196.087 157.056 195.657 157.199 195.23 157.307C194.803 157.416 194.373 157.506 193.943 157.577C193.049 157.686 192.211 157.72 191.428 157.686C191.213 157.686 190.998 157.679 190.786 157.66C190.571 157.641 190.374 157.615 190.196 157.577L190.037 157.525H189.77L189.718 157.472H189.558C189.451 157.439 189.351 157.409 189.265 157.39C189.176 157.371 189.08 157.345 188.972 157.311C188.687 157.278 188.382 157.188 188.063 157.041L200.753 143.67C200.753 143.636 200.761 143.618 200.779 143.618C200.798 143.618 200.805 143.599 200.805 143.565C200.839 143.531 200.868 143.494 200.887 143.457C200.905 143.423 200.95 143.367 201.02 143.295L201.128 143.187V143.134C201.662 142.418 201.885 141.62 201.799 140.743C201.71 139.866 201.31 139.124 200.594 138.513L200.542 138.461H200.49V138.409L200.33 138.3C200.26 138.229 200.152 138.157 200.008 138.086C199.9 138.015 199.8 137.933 199.715 137.843C199.626 137.753 199.525 137.674 199.422 137.599L198.134 136.793C197.278 136.291 196.35 135.845 195.349 135.452C194.351 135.058 193.368 134.736 192.403 134.485C191.476 134.234 190.441 134.054 189.299 133.949C189.013 133.915 188.746 133.885 188.494 133.87C188.241 133.852 187.974 133.844 187.689 133.844C187.403 133.81 187.136 133.792 186.884 133.792H186.079C185.793 133.829 185.526 133.844 185.274 133.844C185.022 133.844 184.755 133.863 184.469 133.896C184.183 133.934 183.905 133.96 183.638 133.979C183.371 133.998 183.093 134.043 182.807 134.114C181.702 134.294 180.593 134.564 179.487 134.92C178.378 135.279 177.291 135.725 176.219 136.261C175.184 136.797 174.164 137.434 173.166 138.169C172.165 138.903 171.219 139.754 170.329 140.721C169.435 141.65 168.652 142.707 167.973 143.887C167.257 145.034 166.69 146.267 166.259 147.594C166.044 148.276 165.859 148.954 165.696 149.636C165.536 150.318 165.417 151.015 165.347 151.731C165.314 152.091 165.284 152.439 165.265 152.777C165.247 153.118 165.239 153.466 165.239 153.822V154.868C165.239 155.209 165.258 155.576 165.291 155.97C165.432 157.367 165.699 158.762 166.096 160.159C166.204 160.519 166.319 160.856 166.445 161.179C166.571 161.501 166.705 161.823 166.846 162.146C166.987 162.505 167.131 162.843 167.276 163.165C167.417 163.487 167.58 163.791 167.758 164.079C168.4 165.331 169.149 166.497 170.006 167.568C170.863 168.644 171.809 169.626 172.844 170.521C173.879 171.417 174.965 172.193 176.112 172.856C177.254 173.519 178.434 174.082 179.647 174.546C180.86 175.048 182.102 175.423 183.367 175.674C184.632 175.925 185.893 176.087 187.143 176.158H189.499L189.714 176.105H190.411C190.519 176.068 190.679 176.053 190.894 176.053C191.502 175.982 192.107 175.892 192.715 175.783C193.323 175.674 193.928 175.532 194.536 175.356C195.145 175.213 195.742 175.041 196.332 174.846C196.921 174.651 197.5 174.426 198.071 174.175C198.357 174.033 198.643 173.898 198.928 173.771C199.214 173.643 199.5 173.512 199.785 173.37L201.391 172.403C203.498 171.042 205.334 169.36 206.907 167.355C207.694 166.279 208.335 165.226 208.836 164.188C209.407 163.112 209.852 161.932 210.175 160.643C210.424 159.462 210.587 158.244 210.657 156.993C210.657 156.708 210.646 156.401 210.631 156.078L210.635 156.071ZM183.301 153.976C183.156 153.834 183.033 153.62 182.926 153.331L182.766 153.009C182.696 152.867 182.659 152.739 182.659 152.634C182.551 152.383 182.499 152.117 182.499 151.829C182.429 151.544 182.429 151.236 182.499 150.914C182.499 150.734 182.518 150.558 182.551 150.378C182.588 150.198 182.64 150.022 182.711 149.842C182.818 149.449 182.97 149.048 183.167 148.636C183.364 148.223 183.623 147.822 183.942 147.425C184.551 146.604 185.315 145.885 186.246 145.278C187.173 144.633 188.264 144.15 189.514 143.828C190.015 143.719 190.512 143.64 191.012 143.584C191.513 143.531 192.01 143.486 192.511 143.449L183.301 153.972V153.976Z" fill="#E52C2C" stroke="white" stroke-width="2" stroke-miterlimit="10"/>
<path d="M249.402 146.889C249.35 145.994 249.109 145.135 248.679 144.311V144.258L248.627 144.206V144.097C248.59 144.064 248.571 144.034 248.571 144.019C248.571 144.004 248.553 143.974 248.519 143.936L248.36 143.614C248.215 143.329 248.108 143.13 248.037 143.022C247.859 142.666 247.644 142.287 247.395 141.894C246.965 141.212 246.487 140.515 245.949 139.799C245.663 139.477 245.377 139.154 245.092 138.832C244.806 138.51 244.484 138.187 244.127 137.865C243.519 137.258 242.788 136.666 241.931 136.093C241.501 135.804 241.056 135.545 240.592 135.313C240.129 135.081 239.646 134.875 239.146 134.695C238.181 134.372 237.146 134.159 236.041 134.05C235.076 134.016 234.079 134.103 233.044 134.32C232.042 134.571 231.204 134.856 230.529 135.178C229.779 135.538 229.082 135.95 228.44 136.415C227.869 136.808 227.279 137.273 226.675 137.809C226.378 138.09 226.092 138.367 225.814 138.648L224.798 136.362C224.512 135.718 224.093 135.163 223.54 134.698C222.988 134.234 222.335 133.911 221.585 133.732C220.977 133.589 220.372 133.578 219.764 133.705C219.156 133.833 218.614 134.046 218.132 134.35C217.65 134.653 217.23 135.058 216.874 135.557C216.518 136.059 216.266 136.613 216.125 137.221L210.717 161.651C210.431 162.94 210.342 164.263 210.45 165.623C210.557 166.984 210.895 168.325 211.466 169.648C212.178 171.26 213.161 172.646 214.411 173.808C215.661 174.97 217.052 175.85 218.588 176.439C220.124 177.031 221.749 177.316 223.462 177.297C225.176 177.278 226.838 176.911 228.444 176.195C230.05 175.479 231.426 174.494 232.569 173.242C233.711 171.987 234.576 170.593 235.165 169.052C235.755 167.512 236.041 165.886 236.022 164.166C236.004 162.449 235.637 160.781 234.924 159.174L228.411 144.483C229.075 144.116 229.746 143.775 230.429 143.498C230.677 143.427 230.911 143.355 231.126 143.284C231.341 143.213 231.571 143.142 231.823 143.071C232.25 142.962 232.643 142.909 233.003 142.909C233.289 142.909 233.611 142.947 233.967 143.018C234.253 143.127 234.45 143.232 234.557 143.34C234.665 143.449 234.791 143.61 234.932 143.824L235.199 144.36C235.269 144.502 235.377 144.753 235.522 145.113C235.592 145.293 235.648 145.454 235.681 145.596C235.714 145.739 235.752 145.9 235.789 146.08C235.859 146.26 235.911 146.447 235.948 146.642C235.982 146.841 236.019 147.028 236.056 147.204C236.056 147.275 236.063 147.365 236.082 147.474C236.1 147.583 236.108 147.673 236.108 147.744V148.118C236.108 148.156 236.089 148.156 236.052 148.118V148.171C236.16 148.958 236.393 149.711 236.749 150.427C237.18 151.251 237.732 151.941 238.411 152.496C239.09 153.05 239.839 153.462 240.659 153.732C241.479 154.002 242.328 154.107 243.204 154.055C244.079 154.002 244.925 153.759 245.748 153.328C246.568 152.897 247.266 152.342 247.837 151.664C248.408 150.982 248.827 150.24 249.094 149.434C249.361 148.628 249.469 147.777 249.417 146.882L249.402 146.889Z" fill="#E52C2C" stroke="white" stroke-width="2" stroke-miterlimit="10"/>
<path d="M118.315 59.8597C118.315 72.7926 114.242 84.7623 107.324 94.5359C96.6116 109.669 79.0698 119.532 59.2504 119.532C26.6299 119.532 0.185471 92.8158 0.185471 59.8597C0.185471 26.9037 26.6299 0.187378 59.2504 0.187378C91.871 0.187378 118.315 26.9037 118.315 59.8597Z" fill="white" stroke="black" stroke-miterlimit="10"/>
<path d="M59.2504 110.197C86.7679 110.197 109.075 87.6602 109.075 59.8598C109.075 32.0593 86.7679 9.52255 59.2504 9.52255C31.7329 9.52255 9.42561 32.0593 9.42561 59.8598C9.42561 87.6602 31.7329 110.197 59.2504 110.197Z" fill="#E52C2C"/>
<mask id="mask0_55_16" style="mask-type:luminance" maskUnits="userSpaceOnUse" x="9" y="9" width="101" height="102">
<path d="M59.2504 110.197C86.7679 110.197 109.075 87.6602 109.075 59.8598C109.075 32.0593 86.7679 9.52255 59.2504 9.52255C31.7329 9.52255 9.42561 32.0593 9.42561 59.8598C9.42561 87.6602 31.7329 110.197 59.2504 110.197Z" fill="white"/>
</mask>
<g mask="url(#mask0_55_16)">
<path d="M105.9 58.4244C104.513 54.8043 100.892 51.6114 95.636 52.6607C93.2694 53.1329 90.9362 53.7587 88.5956 54.3583C87.2639 54.6994 86.9226 54.6132 86.5554 53.279C86.2586 52.1848 86.1103 51.0455 85.9916 49.9137C85.9062 49.078 85.9767 48.2273 85.9767 47.238C87.2008 47.9425 88.1875 48.5908 89.2373 49.0968C91.3999 50.1348 92.5461 49.7414 93.2917 47.4628C94.1634 44.8096 95.0277 42.1151 95.4728 39.3681C96.2184 34.7736 95.3912 30.3852 92.8354 26.4091C91.0623 23.6583 88.6883 21.5372 86.0175 19.7347C82.7458 17.5236 79.4148 17.7784 76.1208 19.6485C74.2253 20.724 72.5449 22.0919 71.1947 23.8382C70.8052 24.3404 70.3935 24.6927 69.6887 24.7714C66.4355 25.1274 63.353 26.038 60.5413 27.7844C60.3929 27.8743 60.2 27.8856 59.8921 27.968C60.2074 26.424 60.4968 25.0262 60.8158 23.4935C58.8238 23.1149 57.3809 23.9619 56.0677 24.9025C54.7546 25.8469 53.6195 27.0424 52.3546 28.1742C51.6981 27.1698 51.4495 25.7757 49.9212 25.311C49.8916 27.1173 49.0644 28.369 48.0257 29.4746C46.7534 30.8274 45.4366 32.1428 44.0826 33.417C43.5856 33.8817 42.9401 34.1852 42.3429 34.5787C41.6789 33.1284 41.1559 31.828 40.5031 30.6026C38.5853 27.0049 34.9464 25.8919 31.7451 26.6676C28.6329 27.4246 25.6506 28.5602 23.0985 30.6101C20.2831 32.8773 18.1353 35.7705 16.3585 38.8472C14.259 42.4748 14.2961 46.3161 16.7332 49.88C18.8957 53.0504 21.3106 56.0223 24.3152 58.4432C26.9266 60.5456 29.564 62.618 32.194 64.7016C32.7207 65.1176 33.1844 65.4699 33.24 66.2906C33.3402 67.8908 33.4923 69.5097 33.8706 71.0575C34.8462 75.0599 36.215 78.9236 38.8153 82.1915C39.6128 83.1958 40.5439 84.0915 41.4786 85.1071C40.6292 87.157 40.4548 89.3006 40.7516 91.5004C40.7924 91.8189 40.6848 92.2499 40.4882 92.501C38.8004 94.6296 37.6208 97.0468 36.5711 99.5352C34.2379 105.074 31.9306 110.62 29.6048 116.163C28.5142 118.76 27.2011 121.219 25.2351 123.261C22.9056 125.682 20.5835 128.103 18.2429 130.509C17.9795 130.782 17.6234 130.962 17.2117 131.251C16.8741 130.584 16.4698 130.063 16.34 129.482C15.8726 127.361 15.4015 125.232 15.1159 123.081C14.9081 121.518 14.986 119.914 14.9304 118.202C14.3517 118.325 13.9511 118.412 13.2945 118.554C13.5394 115.979 13.7693 113.596 14.0179 110.973C11.0689 111.647 8.5502 112.633 6.91435 115.155C5.00771 118.101 4.24728 121.421 3.91714 124.872C3.34218 130.868 5.47509 135.647 10.2602 139.211C11.0763 139.818 11.9814 140.297 12.8717 140.852C12.7826 141.23 12.6973 141.527 12.6454 141.826C12.1001 144.847 11.6846 147.875 12.2262 150.948C13.187 156.374 16.2138 160.234 21.1622 162.427C24.215 163.78 27.4051 164.81 30.547 165.957C33.5442 167.051 36.6749 167.385 39.8131 167.182C44.9506 166.853 50.0362 166.144 54.8065 163.851C56.2866 165.346 58.0523 166.287 60.0071 166.823C61.2424 167.164 62.5184 167.482 63.787 167.542C66.6025 167.67 69.429 167.685 72.2519 167.632C74.2995 167.595 76.3545 167.433 78.3947 167.22C80.4052 167.01 82.3637 166.489 84.0367 165.294C84.875 164.694 85.7171 164.454 86.7112 164.338C88.9517 164.076 91.1625 163.697 93.2731 162.738C94.9424 161.977 95.6509 160.744 95.5173 159.065C95.3912 157.476 95.1167 155.868 94.653 154.347C93.5587 150.746 91.4629 147.867 88.1764 145.96C85.4648 144.382 82.5233 143.839 79.4333 143.955C78.94 143.974 78.4466 143.996 77.9236 144.022C78.5134 135.384 79.3703 126.911 79.5928 118.427C79.8154 109.89 79.322 101.334 78.5097 92.8345C81.403 91.9276 84.1035 91.0882 86.8002 90.2337C92.7353 88.3562 97.7578 85.0658 101.812 80.2914C103.448 78.3652 104.55 76.2029 104.939 73.6358C105.217 71.8032 105.729 69.9969 106.245 68.2131C107.206 64.9002 107.12 61.5911 105.904 58.4244H105.9ZM11.2655 137.786C8.23861 135.234 6.25036 132.135 5.99441 127.979C5.7941 124.685 6.25407 121.567 7.5672 118.577C8.29796 116.909 9.30321 115.436 11.2544 114.45C11.2024 117.542 10.6052 120.39 11.4176 123.343C11.8479 123.134 12.1817 122.969 12.5564 122.789C12.6268 122.901 12.7604 123.017 12.7752 123.145C13.1239 126.907 14.029 130.494 16.0172 133.754C16.2027 134.058 16.2843 134.582 16.1545 134.901C15.5536 136.434 14.8636 137.929 14.1143 139.63C13.135 139.004 12.1112 138.502 11.2692 137.79L11.2655 137.786ZM54.4096 155.018C54.0461 154.04 53.7531 153.253 53.4563 152.451C54.4467 153.358 54.4949 153.485 54.4096 155.018ZM83.0537 162.307C83.0092 163.727 82.9127 163.869 81.6293 164.342C80.5536 164.739 79.4593 164.934 78.1499 164.724C78.1202 164.229 78.0794 163.731 78.0645 163.232C77.9273 159.432 77.3672 155.692 76.4806 151.997C76.373 151.544 76.2358 151.094 76.0503 150.671C75.8723 150.258 75.5644 149.996 74.9264 150.322C75.3752 152.691 75.9057 155.096 76.2618 157.529C76.6179 159.935 76.7959 162.363 77.0667 164.953C76.1802 165.08 75.4346 165.279 74.6964 165.279C70.6383 165.275 66.5728 165.642 62.5258 165.072C60.6192 164.803 58.8053 164.285 57.1806 163.21C55.8044 162.296 54.9289 161.074 55.0996 159.324C55.2183 158.091 55.3518 156.847 55.6263 155.644C55.8934 154.501 55.9305 153.406 55.7265 152.26C55.0959 148.684 54.4541 145.109 53.9237 141.515C53.4823 138.54 53.0965 135.553 52.8665 132.555C52.5327 128.185 52.8183 123.842 53.9793 119.588C54.1537 118.94 54.3688 118.284 54.4096 117.621C54.443 117.13 54.328 116.564 54.0832 116.144C53.92 115.863 53.3858 115.593 53.0928 115.657C52.8331 115.71 52.529 116.216 52.4845 116.557C52.2508 118.408 52.2953 120.315 51.8724 122.114C50.9488 126.027 50.9117 129.954 51.3865 133.882C52.0022 139.031 52.2025 144.24 53.549 149.288C53.5713 149.378 53.5305 149.49 53.486 149.846C52.2582 148.763 51.1342 147.774 50.1327 146.893C50.5815 144.641 51.0452 142.58 51.3902 140.5C51.6313 139.046 51.4792 137.625 50.7262 136.28C49.7506 134.534 48.2706 133.533 46.4344 132.971C46.3157 132.933 46.1488 133.038 46.0041 133.076C45.9448 133.735 46.4641 133.867 46.861 134.028C48.7713 134.811 49.7432 136.317 50.0548 138.289C50.4628 140.867 50.0696 143.333 48.8604 145.855C48.2186 145.63 47.6622 145.428 47.0984 145.244C41.2078 143.299 35.7402 143.985 30.866 148.025C30.0425 148.707 29.3674 149.588 28.6923 150.438C28.4104 150.798 28.3176 151.304 28.1062 151.84C28.9594 151.937 29.2784 151.499 29.5343 151.079C32.487 146.218 41.5194 144.142 47.2913 146.769C48.4004 147.272 49.3018 147.961 50.0251 148.958C52.3287 152.125 53.371 155.7 53.512 159.579C53.5453 160.452 53.5157 161.332 53.5157 162.352C51.4273 163.225 49.2647 163.918 46.8387 164.196C46.7089 162.4 46.6199 160.752 46.4641 159.106C46.2415 156.768 45.763 154.486 44.7281 152.361C44.0604 150.989 43.4038 150.566 41.7272 150.498C42.1204 151.008 42.4319 151.364 42.6842 151.761C43.1516 152.492 43.7302 153.2 44.0122 154.006C45.1843 157.319 45.5219 160.763 45.4996 164.413C43.0069 164.881 40.5216 165.185 38.0252 165.031C36.1927 164.919 34.3232 164.683 32.5649 164.169C29.2598 163.21 25.977 162.134 22.7758 160.875C18.076 159.024 15.3421 155.355 14.5001 150.42C14.1996 148.669 14.1143 146.897 14.3072 145.083C14.3295 144.858 14.3591 144.63 14.3962 144.401C14.4704 143.895 14.5669 143.382 14.6893 142.868C14.7449 142.625 14.808 142.377 14.8784 142.13C14.8859 142.096 14.897 142.062 14.9081 142.032C14.9749 141.793 15.0454 141.553 15.127 141.313C15.1678 141.186 15.2123 141.058 15.2531 140.934C15.2531 140.931 15.2531 140.927 15.2568 140.919C17.297 143.992 19.9863 143.333 22.6052 142.67C25.517 141.931 27.5016 139.806 29.1152 137.453C31.2036 134.406 31.7711 130.842 31.5226 127.188C31.3853 125.12 30.8289 123.216 28.3659 122.927C28.3659 122.673 28.3251 122.549 28.3696 122.474C31.5077 117.257 33.674 111.595 35.8589 105.936C37.2239 102.406 38.5296 98.8419 40.6922 95.6977C41.0372 95.1955 41.4341 94.7345 41.8422 94.2099C50.6335 101.806 60.6155 102.882 71.4692 100.393C71.2837 100.629 71.1168 100.884 70.9054 101.094C70.2377 101.735 69.4698 102.286 68.8949 102.998C66.6878 105.726 68.8541 109.755 71.829 110.231C73.6466 110.523 75.2899 110.231 76.8293 108.859C76.9183 109.305 77.0148 109.582 77.0222 109.863C77.2262 115.987 77.3783 122.118 76.7069 128.226C76.4361 130.651 76.1319 133.076 75.9168 135.504C75.6534 138.454 75.468 141.403 75.2417 144.352C75.2009 144.854 75.1007 145.357 75.0302 145.832C74.14 145.99 73.7394 145.619 73.7023 144.866C73.6689 144.195 73.6503 143.513 73.7357 142.846C74.4813 136.91 74.5554 130.936 74.7038 124.97C74.7669 122.478 74.548 119.982 74.6333 117.497C74.689 115.908 75.0785 114.334 75.3196 112.753C75.3789 112.367 75.442 111.985 75.5088 111.576C74.6037 111.355 74.3143 111.898 74.1697 112.431C73.8506 113.626 73.4278 114.84 73.3981 116.054C73.3165 119.217 73.4871 122.388 73.4389 125.554C73.3758 129.549 73.2201 133.544 73.0457 137.535C72.9344 140.125 72.7193 142.715 72.5412 145.439C71.7623 145.619 70.9276 145.832 70.0819 146.001C66.4986 146.724 63.6795 148.711 61.298 151.424C61.1348 151.611 61.0272 151.851 60.9234 152.083C60.89 152.158 60.953 152.278 61.0013 152.511C61.2609 152.454 61.5911 152.477 61.7691 152.323C62.3144 151.851 62.8077 151.319 63.3085 150.798C65.8457 148.156 68.9728 146.904 72.5783 146.931C76.6475 146.964 81.0617 150.607 82.0522 154.606C82.6753 157.135 83.1316 159.68 83.0426 162.303L83.0537 162.307ZM71.4989 103.212C69.9669 104.1 69.4402 105.273 69.4995 106.952C68.8541 104.932 70.2711 102.781 72.2408 102.492C74.7743 102.121 76.6735 104.25 76.0095 106.719C75.4346 108.848 72.8528 109.597 71.2281 108.11C70.5641 107.502 70.3527 106.614 70.7459 105.704C70.9684 105.19 71.3653 104.752 71.5842 104.235C71.6844 103.999 71.5471 103.657 71.4989 103.212ZM73.5205 100.742C73.2609 100.671 72.9938 100.288 72.9307 100.007C72.8973 99.8574 73.2534 99.5164 73.4946 99.419C74.4367 99.0367 75.4012 98.7144 76.5326 98.306C76.8701 99.9024 77.2373 101.33 77.0074 103.227C76.0095 101.806 74.8633 101.124 73.5205 100.746V100.742ZM76.2469 96.1286C76.08 96.5746 75.4976 97.013 75.0154 97.1629C72.3261 98.0024 69.6256 98.8194 66.8992 99.5202C64.5845 100.116 62.2142 99.9511 59.8625 99.6513C58.7942 99.5127 57.7296 99.3365 56.6538 99.2841C53.2337 99.1267 50.1661 97.7813 47.1948 96.271C45.9485 95.634 44.8616 94.5996 43.8675 93.5803C43.3741 93.0744 43.0588 92.2162 42.9921 91.4929C42.8437 89.8889 43.0737 88.3 43.8527 86.666C44.8727 87.1195 45.8446 87.5317 46.8016 87.9739C48.6712 88.8321 50.5259 89.7166 52.3991 90.571C56.5129 92.4448 60.7787 93.6815 65.3487 93.4454C68.728 93.2692 72.1035 93.0556 75.4791 92.857C75.6831 92.8458 75.8834 92.857 76.1727 92.857C76.8219 94.0225 76.6253 95.1205 76.2506 96.1286H76.2469ZM84.3446 161.445C84.2407 161.437 84.1406 161.43 84.0367 161.422C84.1368 160.89 84.2407 160.354 84.3446 159.822C84.148 159.474 83.9514 159.133 83.7548 158.792C83.8253 158.75 83.9032 158.713 83.9773 158.672C84.0998 159.054 84.2222 159.436 84.3483 159.822V161.449L84.3446 161.445ZM79.5891 145.885C82.6457 145.829 85.6577 146.14 88.3025 147.901C88.9331 148.317 89.5489 148.853 89.9792 149.471C91.615 151.836 92.7909 154.418 93.2323 157.296C93.6292 159.86 93.1618 160.665 90.7544 161.531C90.3798 161.666 89.9755 161.707 89.356 161.842C89.356 161.044 89.3968 160.384 89.3486 159.725C89.1928 157.761 89.1038 155.782 88.7847 153.845C88.6178 152.799 88.0874 151.802 87.6237 150.832C87.39 150.341 86.9597 149.899 86.1325 150.221C86.6036 151.488 87.1749 152.694 87.4864 153.965C87.8055 155.265 87.9093 156.625 88.0391 157.963C88.1653 159.29 88.2098 160.628 88.2951 162.071C87.2676 162.247 86.4256 162.389 85.4277 162.554C85.7096 155.584 83.076 150.262 77.0407 146.781C77.8531 145.994 78.7656 145.896 79.5891 145.885ZM102.383 75.3934C101.382 77.5932 99.9018 79.4258 98.1362 81.0672C95.4172 83.5893 92.4125 85.5643 88.9702 86.9771C85.3832 88.4461 81.6998 89.5217 77.9829 90.556C72.6303 92.0438 67.1997 92.2836 61.7951 91.4892C55.3555 90.541 49.3648 88.0901 44.1346 84.1514C40.6255 81.5057 38.0066 78.0054 36.8864 73.5871C36.4672 71.9306 36.1334 70.248 35.8144 68.5691C35.6845 67.8683 35.7105 67.1413 35.6586 66.3318C37.3834 66.5679 38.8487 66.8415 40.3287 66.9501C42.5692 67.1225 43.4483 66.2231 43.0737 63.9933C42.8177 62.4718 42.2724 60.9953 41.7865 59.5225C40.8221 56.6219 39.7575 53.7512 38.819 50.8394C37.5652 46.9494 37.1572 42.9283 37.2202 38.8547C37.2462 37.1383 37.3389 35.4294 37.4094 33.7168C37.428 33.2221 37.632 32.6825 37.083 32.2965C36.2261 32.4913 36.1222 33.2558 36.0258 33.8629C35.7847 35.3432 35.6103 36.8423 35.5399 38.3413C35.3062 43.5579 36.3188 48.5421 38.27 53.3802C39.3717 56.1122 40.2471 58.9491 41.1485 61.7598C41.4564 62.7229 41.5231 63.7685 41.7309 64.9377C39.5201 65.3424 37.5912 65.0464 35.7773 64.1057C34.683 63.5361 33.6258 62.869 32.6317 62.142C28.9297 59.4288 25.1238 56.8205 22.1786 53.2153C20.9693 51.7388 19.8639 50.1686 18.7993 48.5834C16.6849 45.4317 16.722 42.2088 18.8809 39.132C21.5257 35.3582 24.7084 32.1203 28.8852 30.0817C30.2614 29.4108 31.7748 29.0061 33.2512 28.5864C34.6014 28.2004 35.7847 28.7813 36.853 29.5495C38.3293 30.6138 39.1973 32.1466 39.8279 33.8217C40.3658 35.2608 40.8517 36.7261 41.4156 38.3413C44.8319 36.0065 47.6993 33.3158 50.2328 29.7519C50.2328 30.5913 50.2106 31.1535 50.2365 31.7118C50.2588 32.2627 50.3293 32.8061 50.4072 33.6681C52.8257 30.775 54.4579 27.5146 58.0486 26.1617C57.9966 28.1442 57.2399 30.003 57.9781 32.1166C61.9657 28.2266 66.5617 26.9112 71.9514 27.7394C71.5842 28.7101 71.2541 29.5607 70.9462 30.4189C70.8386 30.7112 70.7422 31.0148 70.6977 31.3184C70.6309 31.7568 70.3786 32.3414 71.0278 32.4951C71.6361 32.6337 71.7252 32.0491 71.8847 31.6107C72.2074 30.7375 72.5635 29.8755 72.8936 29.0061C73.3202 27.8706 74.1289 27.2597 75.3233 27.1473C75.5162 27.1286 75.7054 27.0536 76.1987 26.9262C75.5013 26.3041 74.9709 25.8282 74.3069 25.2398C76.0058 23.4635 77.5786 21.6234 79.6596 20.3492C80.5869 19.7796 81.5774 19.6859 82.5974 20.1806C88.781 23.1824 94.2524 29.2047 93.6589 37.5243C93.4141 41.002 92.6054 44.3711 90.9028 47.549C89.534 47.2867 88.5251 46.5372 87.6385 45.5853C85.3424 43.1194 83.3764 40.3987 81.4809 37.6068C80.3792 35.9878 79.1291 34.4551 77.7863 33.0347C77.1483 32.3602 76.1727 31.9479 75.2825 31.5994C74.7743 31.4008 74.1214 31.5619 73.5354 31.5619C73.4946 31.6781 73.4463 31.7943 73.4055 31.9067C73.9916 32.3302 74.574 32.7499 75.2528 33.2371C74.8374 33.3982 74.5369 33.5144 73.9694 33.7355C74.5146 34.1665 74.8819 34.4813 75.2714 34.7624C77.3301 36.2389 79.3035 37.8054 80.9171 39.8028C82.4194 41.6616 83.4061 43.7153 83.5619 46.1474C83.7029 48.3735 83.8586 50.5995 84.0701 52.8256C84.2259 54.4633 84.4707 56.0897 84.7007 57.8698C83.0129 59.425 81.0617 61.044 79.8117 63.2963C79.6856 63.5286 79.7226 63.8509 79.6559 64.2969C81.5143 63.701 82.4045 62.1795 83.6991 60.8641C83.6991 62.2694 83.5062 63.4761 83.7325 64.5967C84.7081 69.446 87.9538 72.2867 92.3124 73.9993C95.0425 75.0748 97.858 75.0074 100.644 74.1942C101.464 73.9543 102.217 73.4746 103.248 72.9912C102.925 73.8944 102.71 74.6626 102.383 75.3784V75.3934ZM102.751 60.0246C99.8981 61.8984 96.8787 62.0671 93.837 60.583C91.8487 59.6124 91.8413 57.1915 93.7739 55.9848C95.024 55.2053 96.4187 54.8905 97.9396 54.7931C99.0746 55.0516 100.247 55.2053 101.334 55.6063C102.016 55.8611 102.662 56.3933 103.155 56.9517C104.06 57.9822 103.882 59.2789 102.747 60.0246H102.751Z" fill="black"/>
<path d="M100.647 74.2129C97.8617 75.0224 95.0499 75.0898 92.3161 74.018C87.9576 72.3016 84.7118 69.461 83.7362 64.6154C83.51 63.4911 83.7029 62.2882 83.7029 60.8828C82.4083 62.1982 81.5217 63.7197 79.6596 64.3156C79.7227 63.8696 79.6856 63.5473 79.8154 63.315C81.0618 61.0627 83.0129 59.4438 84.7044 57.8885C84.4781 56.1122 84.2296 54.482 84.0738 52.8443C83.8624 50.622 83.7066 48.3922 83.5656 46.1662C83.4098 43.734 82.4268 41.6803 80.9208 39.8216C79.3072 37.8241 77.3375 36.2576 75.2751 34.7811C74.8819 34.5 74.5146 34.1852 73.9731 33.7543C74.5406 33.5332 74.8374 33.417 75.2565 33.2558C74.5814 32.7686 73.9953 32.3489 73.4092 31.9254C73.45 31.813 73.4983 31.6968 73.5391 31.5807C74.1252 31.5807 74.7743 31.4195 75.2862 31.6182C76.1765 31.9667 77.1483 32.3789 77.7901 33.0535C79.1292 34.4738 80.3829 36.0065 81.4846 37.6255C83.3801 40.4137 85.3424 43.1381 87.6423 45.604C88.5288 46.5559 89.5378 47.3092 90.9065 47.5678C92.6054 44.3898 93.4178 41.0208 93.6626 37.543C94.2524 29.2235 88.7847 23.2011 82.6012 20.1993C81.5774 19.7047 80.5907 19.7984 79.6633 20.368C77.5823 21.6459 76.0095 23.4822 74.3106 25.2585C74.9746 25.8469 75.5088 26.3229 76.2024 26.9449C75.7091 27.0724 75.5199 27.1473 75.327 27.166C74.1326 27.2822 73.3239 27.8893 72.8973 29.0248C72.5672 29.898 72.2111 30.76 71.8884 31.6294C71.7289 32.0679 71.6399 32.6525 71.0315 32.5138C70.3824 32.3602 70.6346 31.7755 70.7014 31.3371C70.7459 31.0335 70.8423 30.73 70.9499 30.4377C71.2578 29.5832 71.5879 28.7325 71.9552 27.7582C66.5654 26.93 61.9731 28.2453 57.9818 32.1353C57.2473 30.0217 58.0041 28.1629 58.0523 26.1804C54.4616 27.5333 52.8257 30.7937 50.4109 33.6868C50.333 32.8286 50.2625 32.2815 50.2403 31.7306C50.2143 31.1722 50.2366 30.6101 50.2366 29.7706C47.703 33.3308 44.8357 36.0253 41.4193 38.36C40.8555 36.7486 40.3695 35.2833 39.8317 33.8405C39.2011 32.1653 38.3331 30.6325 36.8567 29.5682C35.7921 28.8 34.6051 28.2154 33.2549 28.6051C31.7748 29.0286 30.2614 29.4333 28.8889 30.1004C24.7121 32.1391 21.5294 35.377 18.8846 39.1507C16.7294 42.2237 16.6924 45.4504 18.803 48.6021C19.8676 50.1873 20.973 51.7575 22.1823 53.2341C25.1313 56.8392 28.9334 59.4438 32.6354 62.1607C33.6332 62.8878 34.6867 63.5548 35.781 64.1245C37.5949 65.0651 39.5238 65.3612 41.7346 64.9564C41.5306 63.7834 41.4601 62.7416 41.1522 61.7785C40.2508 58.9641 39.3791 56.1309 38.2737 53.399C36.3188 48.5609 35.3062 43.5766 35.5436 38.36C35.6141 36.861 35.7884 35.362 36.0295 33.8817C36.1297 33.2746 36.2335 32.5101 37.0867 32.3152C37.632 32.7012 37.4317 33.2371 37.4131 33.7355C37.3426 35.4482 37.2499 37.157 37.2239 38.8734C37.1609 42.947 37.5689 46.9682 38.8227 50.8581C39.7612 53.77 40.8258 56.6368 41.7902 59.5412C42.2762 61.0103 42.8214 62.4905 43.0774 64.012C43.452 66.2418 42.5729 67.1413 40.3324 66.9689C38.8524 66.8602 37.3872 66.5829 35.6623 66.3505C35.7142 67.16 35.6845 67.887 35.8181 68.5878C36.1334 70.2667 36.4709 71.9494 36.8901 73.6058C38.0103 78.0242 40.6292 81.5244 44.1383 84.1702C49.3686 88.1051 55.3593 90.5597 61.7988 91.5079C67.2034 92.3061 72.6377 92.0625 77.9867 90.5747C81.7035 89.5404 85.3869 88.4649 88.9739 86.9958C92.4163 85.5867 95.4246 83.608 98.1399 81.0859C99.9056 79.4445 101.386 77.6119 102.387 75.4121C102.714 74.6963 102.932 73.9281 103.251 73.0249C102.22 73.5084 101.467 73.988 100.647 74.2279V74.2129ZM73.2349 86.2838C71.9514 87.1757 70.5159 86.6023 69.0618 86.5461C68.8838 86.9246 68.7465 87.3069 68.5351 87.6441C68.1567 88.2512 67.8006 88.8996 67.3147 89.413C66.3391 90.4398 65.4637 90.5035 64.1209 89.7877C62.9784 89.1806 62.4405 88.2175 62.6557 86.9846C62.7595 86.3775 62.9932 85.7891 63.2232 85.212C63.3716 84.8335 63.6795 84.5074 63.7944 84.1214C63.8909 83.8066 63.813 83.4356 63.813 82.9222C65.0779 83.1171 65.664 84.2976 66.7026 84.6199C67.7747 84.9534 68.8355 85.3506 69.9335 85.5605C71.013 85.7629 72.1332 85.7666 73.2312 85.8528V86.28L73.2349 86.2838ZM67.7487 67.5085C65.4748 69.8357 65.4451 69.9069 62.422 68.7077C59.0835 67.3848 55.7673 65.9945 53.0223 63.5174C49.7914 60.6018 48.2112 57.0004 48.3151 52.6457C48.3967 49.1342 51.2826 45.6602 54.647 44.9407C56.2792 44.5922 57.8112 44.9445 59.2838 45.6228C60.2149 46.0537 61.1014 46.5747 62.1363 47.1181C62.4108 46.6646 62.6149 46.3086 62.8337 45.9601C64.2767 43.6628 66.9178 42.7184 69.3994 43.794C72.315 45.0531 74.1993 47.2642 74.2142 50.577C74.2476 57.0416 72.3409 62.8128 67.7524 67.5048L67.7487 67.5085ZM78.6655 53.3952C78.7285 52.9118 79.0216 52.4134 79.3369 52.0236C80.2976 50.8394 81.8111 50.8806 82.5307 52.2185C83.076 53.2378 83.3097 54.4295 83.6546 55.4451C83.3987 56.4907 83.2985 57.3864 82.961 58.1771C82.3563 59.5862 80.7761 59.7698 79.8599 58.5481C78.7174 57.0266 78.4207 55.2428 78.6655 53.3915V53.3952Z" fill="#F1F1F1"/>
<path d="M15.2716 140.923C17.3081 144 20.0011 143.337 22.6163 142.673C25.5282 141.935 27.5164 139.81 29.1263 137.457C31.2147 134.406 31.7822 130.846 31.5374 127.188C31.4002 125.12 30.8438 123.216 28.377 122.931C28.377 122.676 28.3399 122.553 28.3807 122.478C31.5189 117.261 33.6852 111.599 35.87 105.94C37.2351 102.41 38.5371 98.8456 40.6997 95.7014C41.0446 95.1992 41.4452 94.7383 41.8496 94.2174C50.6409 101.814 60.6229 102.889 71.4803 100.401C71.2912 100.637 71.128 100.896 70.9128 101.102C70.2488 101.742 69.481 102.293 68.9023 103.005C66.6989 105.734 68.8652 109.762 71.8365 110.238C73.6541 110.53 75.2973 110.238 76.8367 108.867C76.9258 109.313 77.0222 109.59 77.0333 109.871C77.2374 115.998 77.3931 122.122 76.7143 128.234C76.4472 130.659 76.1394 133.08 75.9205 135.512C75.6571 138.457 75.4754 141.41 75.2454 144.36C75.2046 144.866 75.1044 145.364 75.034 145.84C74.1437 145.997 73.7431 145.626 73.706 144.873C73.6726 144.202 73.6541 143.52 73.7394 142.853C74.485 136.917 74.5592 130.943 74.7038 124.974C74.7669 122.485 74.548 119.989 74.6371 117.501C74.6927 115.912 75.0822 114.338 75.3233 112.757C75.3826 112.371 75.4457 111.988 75.5125 111.58C74.6074 111.362 74.318 111.906 74.1734 112.438C73.8544 113.633 73.4315 114.848 73.4018 116.062C73.3202 119.225 73.4908 122.395 73.4426 125.562C73.3796 129.557 73.2238 133.552 73.0531 137.543C72.9419 140.132 72.7267 142.722 72.5487 145.446C71.766 145.626 70.9314 145.84 70.0893 146.009C66.5023 146.732 63.6869 148.722 61.3054 151.431C61.1422 151.619 61.0309 151.862 60.9271 152.095C60.8937 152.17 60.9567 152.29 61.005 152.522C61.2683 152.466 61.5948 152.488 61.7728 152.335C62.3181 151.862 62.8115 151.33 63.3122 150.809C65.8495 148.163 68.9802 146.916 72.582 146.942C76.6513 146.972 81.0692 150.622 82.0559 154.613C82.6791 157.143 83.1353 159.687 83.05 162.311C83.0018 163.731 82.909 163.877 81.6256 164.349C80.5536 164.743 79.4556 164.941 78.1462 164.731C78.1165 164.237 78.0794 163.738 78.0608 163.24C77.9273 159.44 77.3635 155.7 76.4806 152.005C76.3731 151.551 76.2358 151.102 76.0503 150.674C75.8686 150.262 75.5644 150 74.9264 150.326C75.3715 152.698 75.9057 155.1 76.2618 157.532C76.6142 159.938 76.7922 162.37 77.0667 164.956C76.1802 165.084 75.4346 165.286 74.6927 165.282C70.6346 165.275 66.5728 165.646 62.5221 165.076C60.6155 164.806 58.8016 164.289 57.1769 163.214C55.797 162.299 54.9252 161.078 55.0922 159.331C55.2109 158.098 55.3444 156.854 55.6226 155.651C55.8897 154.512 55.9231 153.414 55.7191 152.267C55.0848 148.692 54.443 145.117 53.9126 141.527C53.4749 138.551 53.0854 135.564 52.8554 132.566C52.5215 128.196 52.8072 123.853 53.9682 119.6C54.1463 118.951 54.3577 118.295 54.4022 117.632C54.4356 117.141 54.3169 116.575 54.0795 116.156C53.9163 115.875 53.3858 115.605 53.0854 115.668C52.8257 115.721 52.5215 116.231 52.4807 116.568C52.2508 118.419 52.2916 120.327 51.8687 122.125C50.9488 126.038 50.9117 129.965 51.3828 133.897C51.9985 139.042 52.1988 144.255 53.5491 149.299C53.575 149.389 53.5305 149.501 53.486 149.857C52.2582 148.774 51.1342 147.781 50.1327 146.901C50.5815 144.648 51.0452 142.587 51.3902 140.507C51.6313 139.053 51.4792 137.637 50.7262 136.287C49.7506 134.541 48.2706 133.544 46.4381 132.978C46.3157 132.941 46.1525 133.046 46.0078 133.083C45.9485 133.743 46.4715 133.87 46.8647 134.035C48.775 134.818 49.7506 136.329 50.0622 138.296C50.4702 140.874 50.077 143.34 48.8678 145.859C48.2261 145.638 47.6696 145.435 47.1058 145.248C41.2153 143.303 35.7476 143.989 30.8734 148.029C30.0499 148.711 29.3711 149.591 28.6997 150.442C28.4178 150.798 28.3288 151.308 28.1173 151.84C28.9705 151.937 29.2895 151.499 29.5455 151.079C32.4981 146.218 41.5306 144.146 47.3024 146.769C48.4115 147.275 49.3092 147.957 50.0362 148.958C52.3398 152.125 53.3821 155.7 53.5231 159.579C53.5565 160.455 53.5268 161.332 53.5268 162.352C51.4384 163.225 49.2795 163.918 46.8499 164.196C46.72 162.4 46.631 160.752 46.4752 159.11C46.2526 156.772 45.7741 154.489 44.7392 152.364C44.0715 150.993 43.4149 150.566 41.7383 150.502C42.1278 151.012 42.4394 151.368 42.6953 151.761C43.1664 152.496 43.7414 153.2 44.027 154.006C45.1992 157.315 45.5367 160.763 45.5145 164.413C43.0217 164.881 40.5364 165.185 38.04 165.031C36.2076 164.919 34.338 164.679 32.5798 164.169C29.2784 163.206 25.9956 162.134 22.7906 160.875C18.0908 159.028 15.357 155.355 14.5149 150.42C13.9919 147.358 14.1143 144.221 15.2754 140.923H15.2716Z" fill="#F1F1F1"/>
<path d="M76.1653 92.8607C76.8145 94.0262 76.6179 95.1243 76.2395 96.1323C76.0726 96.5783 75.4902 97.0168 75.008 97.1667C72.3187 98.0061 69.6219 98.8231 66.8955 99.5239C64.5771 100.12 62.2105 99.9549 59.8588 99.6551C58.7905 99.5202 57.7221 99.3403 56.6501 99.2915C53.2263 99.1342 50.1624 97.7888 47.1874 96.2785C45.9411 95.6452 44.8542 94.6071 43.8601 93.5878C43.3667 93.0818 43.0514 92.2274 42.9847 91.4966C42.8363 89.8927 43.0626 88.3037 43.8452 86.6698C44.8653 87.1232 45.8372 87.5392 46.7942 87.9777C48.6638 88.8359 50.5185 89.7203 52.388 90.571C56.5055 92.4485 60.7639 93.6814 65.3376 93.4491C68.7168 93.2767 72.0924 93.0594 75.468 92.8645C75.672 92.8532 75.876 92.8645 76.1616 92.8645L76.1653 92.8607Z" fill="#00519A"/>
<path d="M97.9396 54.7931C99.0747 55.0516 100.251 55.209 101.334 55.6063C102.016 55.8574 102.665 56.3933 103.159 56.9516C104.064 57.9822 103.886 59.2826 102.751 60.0284C99.8981 61.9022 96.8787 62.0708 93.837 60.583C91.8487 59.6087 91.8413 57.1915 93.7739 55.9848C95.024 55.2053 96.4187 54.8905 97.9396 54.7893V54.7931Z" fill="white"/>
<path d="M69.4995 106.955C68.8541 104.935 70.2711 102.784 72.2408 102.496C74.7743 102.125 76.6735 104.257 76.0095 106.723C75.4346 108.852 72.8565 109.601 71.2281 108.113C70.5641 107.502 70.3527 106.622 70.7459 105.707C70.9684 105.194 71.3616 104.755 71.5805 104.238C71.6807 104.002 71.5434 103.661 71.4952 103.219C69.9595 104.107 69.4328 105.28 69.4958 106.959L69.4995 106.955Z" fill="#DDAB0C"/>
<path d="M76.5289 98.3097C76.8664 99.9062 77.2374 101.334 77.0037 103.226C76.0058 101.806 74.8596 101.124 73.5131 100.746C73.2572 100.674 72.9864 100.296 72.9233 100.011C72.8899 99.8612 73.246 99.5202 73.4908 99.4227C74.433 99.0405 75.3975 98.7182 76.5289 98.3097Z" fill="#F1F1F1"/>
<path d="M82.527 52.2222C81.811 50.8844 80.2976 50.8394 79.3332 52.0274C79.0179 52.4134 78.7211 52.9155 78.6618 53.399C78.4169 55.254 78.7137 57.0379 79.8562 58.5556C80.7724 59.7773 82.3526 59.5937 82.9573 58.1846C83.2948 57.3939 83.395 56.4982 83.6509 55.4526C83.3059 54.4333 83.0722 53.2453 82.527 52.226V52.2222ZM80.4237 55.5876C79.7968 55.5313 79.3591 54.8193 79.3962 53.9274C79.4407 52.8331 80.0639 52.1248 80.9245 52.1773C81.5848 52.2185 82.0188 52.7956 82.0039 53.6051C81.9817 54.5982 81.1471 55.6475 80.4237 55.5876Z" fill="black"/>
<path d="M69.9335 85.568C68.8355 85.3581 67.7709 84.9609 66.7026 84.6274C65.664 84.3051 65.0779 83.1208 63.813 82.9297C63.813 83.4431 63.8909 83.8141 63.7944 84.1289C63.6757 84.5149 63.3716 84.841 63.2232 85.2195C62.9932 85.7966 62.7595 86.385 62.6557 86.9921C62.4405 88.225 62.9784 89.1881 64.1209 89.7952C65.4637 90.511 66.3391 90.4473 67.3147 89.4205C67.8006 88.9071 68.1567 88.2587 68.5351 87.6516C68.7465 87.3144 68.8838 86.9321 69.0618 86.5536C70.5159 86.6061 71.9514 87.1794 73.2349 86.2913V85.8641C72.1332 85.7741 71.0167 85.7741 69.9372 85.5717L69.9335 85.568ZM66.6062 88.8359C66.0535 89.3605 65.4303 89.458 64.7663 89.1132C63.9799 88.7085 63.4754 88.0976 63.4977 87.1495C63.5199 86.2763 63.8761 85.5568 64.5252 84.8035C64.9184 84.9834 65.3042 85.1595 65.5972 85.2944C65.8383 86.1938 64.7515 86.7972 65.523 87.7791C66.0015 87.1907 66.4281 86.666 66.9771 85.9877C67.285 86.2238 67.6671 86.37 67.7079 86.5836C67.8933 87.5804 67.259 88.225 66.6099 88.8359H66.6062Z" fill="black"/>
<path d="M69.3957 43.7977C66.9141 42.7222 64.273 43.6666 62.8263 45.9638C62.6074 46.3086 62.4071 46.6646 62.1326 47.1218C61.0977 46.5747 60.2112 46.0538 59.2801 45.6265C57.8075 44.9482 56.2755 44.596 54.6433 44.9445C51.2789 45.6603 48.393 49.138 48.3114 52.6495C48.2112 57.0004 49.7877 60.6018 53.0186 63.5211C55.7636 65.9983 59.0798 67.3849 62.4183 68.7152C65.4414 69.9145 65.4711 69.8433 67.745 67.516C72.3335 62.8203 74.2401 57.0491 74.2068 50.5846C74.1919 47.2755 72.3038 45.0644 69.3919 43.8015L69.3957 43.7977Z" fill="#6B4943"/>
<path d="M82.0039 53.6051C81.9854 54.5982 81.1471 55.6475 80.4237 55.5838C79.7968 55.5276 79.3554 54.8193 79.3925 53.9236C79.437 52.8293 80.0602 52.1173 80.9245 52.1735C81.5848 52.2147 82.0188 52.7919 82.0039 53.6013V53.6051Z" fill="white"/>
<path d="M66.9734 85.984C67.2776 86.2238 67.6634 86.3662 67.7042 86.5798C67.8896 87.5767 67.259 88.2175 66.6062 88.8359C66.0535 89.3605 65.4303 89.458 64.7663 89.1132C63.9836 88.7085 63.4754 88.0976 63.4977 87.1495C63.5162 86.2763 63.8761 85.5568 64.5252 84.8035C64.9184 84.9834 65.3042 85.1595 65.5972 85.2944C65.8383 86.1901 64.7515 86.7972 65.523 87.7791C66.0016 87.1907 66.4281 86.666 66.9771 85.9877L66.9734 85.984Z" fill="#B47869"/>
<path d="M61.8507 50.4496C61.8507 50.4496 60.6971 51.1242 60.6971 51.4465C60.6971 51.7688 60.4931 53.71 60.4931 53.71L62.1104 54.7518L64.1543 53.0242L63.5978 50.7345L61.8507 50.4534V50.4496Z" fill="#F1F1F1"/>
<path d="M64.0133 50.6595C63.2974 49.3216 61.784 49.2804 60.8195 50.4646C60.5042 50.8506 60.2112 51.3528 60.1481 51.8362C59.9033 53.6913 60.2 55.4714 61.3462 56.9929C62.2625 58.2108 63.839 58.0309 64.4473 56.6181C64.7886 55.8274 64.8887 54.9317 65.141 53.8899C64.7997 52.8706 64.5623 51.6788 64.017 50.6595H64.0133ZM60.8826 52.3646C60.9271 51.2703 61.5503 50.5621 62.4108 50.6183C63.0711 50.6595 63.5051 51.2366 63.4903 52.0461C63.4717 53.0392 62.6334 54.0885 61.9101 54.0248C61.2869 53.9723 60.8455 53.2603 60.8826 52.3646Z" fill="black"/>
</g>
</g>
<defs>
<clipPath id="clip0_55_16">
<rect width="260" height="188" fill="white"/>
</clipPath>
</defs>
</svg>
